<svg width="35" height="35" viewBox="0 0 35 35" fill="none" xmlns="http://www.w3.org/2000/svg">
<rect x="0.5" y="0.5" width="34" height="34" rx="17" stroke="#0FB62A"/>
<path d="M19.3933 17.1371C20.7392 16.085 21.6457 14.0914 21.6457 12.2086C21.6457 9.46747 19.7229 8 17.3331 8C14.9709 8 13.0206 9.46747 13.0206 12.2086C13.0206 14.0914 13.9271 16.085 15.273 17.1371C11.9768 17.8847 9.55957 20.3212 9.55957 22.6194C9.61451 25.3605 13.0755 26.828 17.3606 26.828C21.6457 26.828 25.1067 25.3605 25.1067 22.6194C25.1067 20.3212 22.6895 17.8847 19.3933 17.1371Z" fill="#0FB62A"/>
<path d="M26.5077 16.7496C27.2769 16.1682 27.7713 15.0329 27.7713 13.9808C27.7713 12.4303 26.7 11.5996 25.3541 11.5996C24.0081 11.5996 22.9368 12.4303 22.9368 13.9808C22.9368 15.0329 23.4587 16.1682 24.2004 16.7496C23.4313 16.9157 22.7446 17.2757 22.2227 17.691C24.118 18.7985 25.4365 20.4875 25.6287 22.2042C27.9086 22.1211 29.7215 21.3182 29.7215 19.823C29.7215 18.5493 28.3481 17.1649 26.5077 16.7496Z" fill="#0FB62A"/>
<path d="M12.4989 17.691C11.9495 17.2757 11.2903 16.9157 10.5212 16.7496C11.2903 16.1682 11.7847 15.0329 11.7847 13.9808C11.7847 12.4303 10.7134 11.5996 9.36748 11.5996C8.02153 11.5996 6.95026 12.4303 6.95026 13.9808C6.95026 15.0329 7.47216 16.1682 8.21381 16.7496C6.37342 17.1649 5 18.5493 5 19.823C5 21.3182 6.81292 22.1211 9.0928 22.1765C9.28508 20.4875 10.6036 18.7985 12.4989 17.691Z" fill="#0FB62A"/>
</svg>
